<?xml version="1.0" ?><svg id="Multicolor" viewBox="0 0 100 112" xmlns="http://www.w3.org/2000/svg"><defs><style>.cls-1{fill:#fff0ed;}.cls-2{fill:#45413c;fill-opacity:0.15;}.cls-3{fill:#ff8a14;}.cls-4{fill:#ffe500;}.cls-5{fill:#6dd627;}.cls-6{fill:#00b8f0;}.cls-7{fill:#9f5ae5;}.cls-8{fill:#ff6242;}.cls-9{fill:none;stroke:#45413c;stroke-linecap:round;stroke-linejoin:round;}</style></defs><title/><g id="Scene"><g data-name="New Symbol 1" id="New_Symbol_1-69"><circle class="cls-1" cx="50.065" cy="55.807" r="40"/></g><ellipse class="cls-2" cx="50.064" cy="82.734" rx="15.525" ry="1.725"/><path class="cls-3" d="M76.072,47.811s-10,3-16,3-16-4-22-4-14,3-14,3v-6s8-3,14-3,16,4,22,4,16-3,16-3Z"/><path class="cls-4" d="M76.072,53.811s-10,3-16,3-16-4-22-4-14,3-14,3v-6s8-3,14-3,16,4,22,4,16-3,16-3Z"/><path class="cls-5" d="M76.072,59.811s-10,3-16,3-16-4-22-4-14,3-14,3v-6s8-3,14-3,16,4,22,4,16-3,16-3Z"/><path class="cls-6" d="M76.072,65.812s-10,3-16,3-16-4-22-4-14,3-14,3v-6s8-3,14-3,16,4,22,4,16-3,16-3Z"/><path class="cls-7" d="M76.072,71.061a.991.991,0,0,1-.719.959c-2.4.68-10.248,2.792-15.282,2.792-6,0-16-4-22-4-4.515,0-10.163,1.7-12.682,2.54a1,1,0,0,1-1.317-.949V67.812s8-3,14-3,16,4,22,4,16-3,16-3Z"/><path class="cls-8" d="M76.072,41.811s-10,3-16,3-16-4-22-4-14,3-14,3v-5.3a1,1,0,0,1,.671-.944c2.048-.712,8.371-2.76,13.328-2.76,6,0,16,4,22,4,4.7,0,11.852-1.84,14.733-2.638a1,1,0,0,1,1.268.964Z"/><path class="cls-9" d="M76.072,71.059a1,1,0,0,1-.727.962c-2.406.683-10.245,2.79-15.274,2.79-6,0-16-4-22-4-4.515,0-10.163,1.7-12.682,2.54a1,1,0,0,1-1.317-.948V38.516a1,1,0,0,1,.671-.945c2.047-.712,8.37-2.76,13.328-2.76,6,0,16,4,22,4,4.7,0,11.853-1.84,14.733-2.638a1,1,0,0,1,1.268.964Z"/></g></svg>